<?xml version="1.0" encoding="utf-8"?>
<!-- Generator: Adobe Illustrator 24.3.0, SVG Export Plug-In . SVG Version: 6.00 Build 0)  -->
<svg version="1.1" id="Layer_1" xmlns="http://www.w3.org/2000/svg" xmlns:xlink="http://www.w3.org/1999/xlink" x="0px" y="0px"
	 viewBox="0 0 669 63" style="enable-background:new 0 0 669 63;" xml:space="preserve">
<style type="text/css">
	.st0{fill:#2E3690;}
	.st1{fill-rule:evenodd;clip-rule:evenodd;fill:#2E3690;}
</style>
<g>
	<rect x="222.5" y="17" class="st0" width="0.7" height="43.9"/>
	<rect x="221.9" y="16.4" class="st0" width="1.9" height="45.1"/>
	<g>
		<path class="st0" d="M246,16.5h3.9l9,12.2V16.5h4.2v19.9h-3.6l-9.3-12.6v12.6H246V16.5z"/>
		<path class="st0" d="M267.9,16.5h4.2v19.9h-4.2V16.5z"/>
		<path class="st0" d="M281.5,20.5h-5.9v-4h16v4h-5.9v15.8h-4.2V20.5z"/>
		<path class="st0" d="M299.3,20.5h-5.9v-4h16v4h-5.9v15.8h-4.2V20.5z"/>
		<path class="st0" d="M312.7,16.5h14.5v3.9h-10.3v4h9.1v3.9h-9.1v4.2h10.5v3.9h-14.7V16.5z"/>
		<path class="st0" d="M339.4,16.5h4.6l5.1,8.4l5.1-8.4h4.6v19.9h-4.2v-13l-5.4,8.5h-0.1l-5.4-8.4v12.9h-4.2V16.5z"/>
		<path class="st0" d="M363.3,16.5h14.5v3.9h-10.3v4h9.1v3.9h-9.1v4.2H378v3.9h-14.7V16.5z"/>
		<path class="st0" d="M381.8,16.5h14.5v3.9H386v4h9.1v3.9H386v4.2h10.5v3.9h-14.7V16.5z"/>
		<path class="st0" d="M400.2,16.5h3.9l9,12.2V16.5h4.2v19.9h-3.6l-9.3-12.6v12.6h-4.2V16.5z"/>
		<path class="st0" d="M428.6,16.4h3.9l8.3,20h-4.4l-1.8-4.5h-8.2l-1.8,4.5h-4.3L428.6,16.4z M433,28.1l-2.6-6.4l-2.6,6.4H433z"/>
		<path class="st0" d="M443.7,16.5h4.2v8.7l7.8-8.7h5.1l-7.9,8.4l8.2,11.4h-5.1l-6-8.5l-2.2,2.4v6.1h-4.2V16.5z"/>
		<path class="st0" d="M462.2,33.5l2.5-3.1c1.7,1.5,3.6,2.4,5.8,2.4c1.7,0,2.8-0.7,2.8-1.9v-0.1c0-1.1-0.7-1.7-3.9-2.5
			c-3.9-1-6.4-2.1-6.4-6.1v-0.1c0-3.6,2.8-6,6.8-6c2.8,0,5.2,0.9,7.2,2.5l-2.2,3.3c-1.7-1.2-3.4-2-5-2c-1.6,0-2.5,0.8-2.5,1.7v0.1
			c0,1.3,0.8,1.7,4.2,2.6c3.9,1,6.1,2.5,6.1,6v0.1c0,3.9-2.9,6.2-7.1,6.2C467.5,36.6,464.6,35.6,462.2,33.5z"/>
		<path class="st0" d="M481.2,16.5h4.2v7.9h7.8v-7.9h4.2v19.9h-4.2v-8h-7.8v8h-4.2V16.5z"/>
		<path class="st0" d="M502.3,16.5h4.2v19.9h-4.2V16.5z"/>
	</g>
	<g>
		<path class="st0" d="M246.2,41.3h4.2v19.9h-4.2V41.3z"/>
		<path class="st0" d="M255.2,41.3h3.9l9,12.2V41.3h4.2v19.9h-3.6l-9.3-12.6v12.6h-4.2V41.3z"/>
		<path class="st0" d="M275.7,58.3l2.5-3.1c1.7,1.5,3.6,2.4,5.8,2.4c1.7,0,2.8-0.7,2.8-1.9v-0.1c0-1.1-0.7-1.7-3.9-2.5
			c-3.9-1-6.4-2.1-6.4-6.1V47c0-3.6,2.8-6,6.8-6c2.8,0,5.2,0.9,7.2,2.5l-2.2,3.3c-1.7-1.2-3.4-2-5-2c-1.6,0-2.5,0.8-2.5,1.7v0.1
			c0,1.3,0.8,1.7,4.2,2.6c3.9,1,6.1,2.5,6.1,6v0.1c0,3.9-2.9,6.2-7.1,6.2C280.9,61.4,278,60.4,275.7,58.3z"/>
		<path class="st0" d="M298.7,45.3h-5.9v-4h16v4H303v15.8h-4.2V45.3z"/>
		<path class="st0" d="M312.3,41.3h4.2v19.9h-4.2V41.3z"/>
		<path class="st0" d="M325.8,45.3h-5.9v-4h16v4h-5.9v15.8h-4.2V45.3z"/>
		<path class="st0" d="M338.9,52.6V41.3h4.2v11.2c0,3.2,1.6,4.9,4.2,4.9c2.6,0,4.2-1.6,4.2-4.8V41.3h4.2v11.2c0,6-3.3,9-8.5,9
			C342,61.5,338.9,58.5,338.9,52.6z"/>
		<path class="st0" d="M364.5,45.3h-5.9v-4h16v4h-5.9v15.8h-4.2V45.3z"/>
		<path class="st0" d="M377.8,41.3h14.5v3.9h-10.3v4h9.1v3.9h-9.1v4.2h10.5v3.9h-14.7V41.3z"/>
		<path class="st0" d="M403.7,51.3L403.7,51.3c0-5.7,4.3-10.3,10.3-10.3c6,0,10.2,4.6,10.2,10.2v0.1c0,5.6-4.3,10.3-10.3,10.3
			C408,61.5,403.7,56.9,403.7,51.3z M419.8,51.3L419.8,51.3c0-3.5-2.4-6.3-5.8-6.3c-3.4,0-5.8,2.8-5.8,6.2v0.1
			c0,3.4,2.4,6.2,5.8,6.2S419.8,54.7,419.8,51.3z"/>
		<path class="st0" d="M428,41.3h14.7v4h-10.4v4.2h9.2v4h-9.2v7.7H428V41.3z"/>
		<path class="st0" d="M458.8,45.3h-5.9v-4h16v4H463v15.8h-4.2V45.3z"/>
		<path class="st0" d="M472.2,41.3h14.5v3.9h-10.3v4h9.1v3.9h-9.1v4.2h10.5v3.9h-14.7V41.3z"/>
		<path class="st0" d="M489.8,51.3L489.8,51.3c0-5.7,4.1-10.3,10.1-10.3c3.6,0,5.8,1.2,7.6,3.1l-2.7,3.2c-1.5-1.4-3-2.2-4.9-2.2
			c-3.3,0-5.6,2.8-5.6,6.2v0.1c0,3.4,2.3,6.2,5.6,6.2c2.2,0,3.6-0.9,5.1-2.3l2.7,2.8c-2,2.2-4.2,3.5-7.9,3.5
			C494,61.5,489.8,57,489.8,51.3z"/>
		<path class="st0" d="M510.9,41.3h4.2v7.9h7.8v-7.9h4.2v19.9H523v-8h-7.8v8h-4.2V41.3z"/>
		<path class="st0" d="M531.9,41.3h3.9l9,12.2V41.3h4.2v19.9h-3.6l-9.3-12.6v12.6h-4.2V41.3z"/>
		<path class="st0" d="M552.8,51.3L552.8,51.3c0-5.7,4.3-10.3,10.3-10.3c6,0,10.2,4.6,10.2,10.2v0.1c0,5.6-4.3,10.3-10.3,10.3
			C557.1,61.5,552.8,56.9,552.8,51.3z M568.8,51.3L568.8,51.3c0-3.5-2.4-6.3-5.8-6.3c-3.4,0-5.8,2.8-5.8,6.2v0.1
			c0,3.4,2.4,6.2,5.8,6.2C566.5,57.5,568.8,54.7,568.8,51.3z"/>
		<path class="st0" d="M577.1,41.3h4.2v15.9h9.6v4h-13.9V41.3z"/>
		<path class="st0" d="M592.2,51.3L592.2,51.3c0-5.7,4.3-10.3,10.3-10.3c6,0,10.2,4.6,10.2,10.2v0.1c0,5.6-4.3,10.3-10.3,10.3
			C596.4,61.5,592.2,56.9,592.2,51.3z M608.2,51.3L608.2,51.3c0-3.5-2.4-6.3-5.8-6.3c-3.4,0-5.8,2.8-5.8,6.2v0.1
			c0,3.4,2.4,6.2,5.8,6.2C605.9,57.5,608.2,54.7,608.2,51.3z"/>
		<path class="st0" d="M615.6,51.3L615.6,51.3c0-5.7,4.3-10.3,10.1-10.3c3.5,0,5.6,1,7.6,2.7l-2.7,3.3c-1.5-1.3-2.8-2-5-2
			c-3.1,0-5.5,2.8-5.5,6.2v0.1c0,3.6,2.4,6.3,5.8,6.3c1.5,0,2.9-0.4,4-1.2v-2.8h-4.3v-3.8h8.4v8.6c-2,1.7-4.7,3.1-8.2,3.1
			C619.7,61.5,615.6,57.2,615.6,51.3z"/>
		<path class="st0" d="M642.7,53.3l-7.4-12h5l4.6,8l4.7-8h4.8l-7.4,11.9v7.9h-4.2V53.3z"/>
	</g>
	<polygon class="st1" points="26.7,16.5 32.7,16.5 46.5,34.7 46.5,16.5 53,16.5 53,46.1 48.7,46 	"/>
	<polygon class="st1" points="33.1,32.6 33.1,46.1 26.7,46.1 26.7,23.9 	"/>
	<polygon class="st0" points="79.4,16.5 85.3,16.5 99.2,34.7 99.2,16.5 105.6,16.5 105.6,46 100,46 85.8,27.3 85.8,46 79.4,46 	"/>
	<rect x="109.5" y="16.5" class="st0" width="6.5" height="29.5"/>
	<polygon class="st0" points="129,22.5 120,22.5 120,16.5 144.5,16.5 144.5,22.5 135.5,22.5 135.5,46 129,46 	"/>
	<polygon class="st0" points="157.4,22.5 148.4,22.5 148.4,16.5 172.9,16.5 172.9,22.5 163.9,22.5 163.9,46 157.4,46 	"/>
	<polygon class="st0" points="176.8,16.5 199.1,16.5 199.1,22.3 183.3,22.3 183.3,28.3 197.2,28.3 197.2,34.1 183.3,34.1 
		183.3,40.2 199.1,40.2 199.1,46 176.8,46 	"/>
	<path class="st1" d="M48.8,53.9C46.1,55.3,43,56,39.7,56c-11.2,0-20.4-9.1-20.4-20.4V14l-4.7-6.4V36c0,13.8,11.2,25.1,25.1,25.1
		c4.4,0,8.5-1.1,12.1-3.1L48.8,53.9z"/>
	<path class="st1" d="M15.8,1.5l3.7,5h40.6v29.2c0,6.4-2.9,12-7.5,15.8l2.9,4c5.6-4.6,9.3-11.6,9.3-19.4V1.5H15.8z"/>
	<path class="st0" d="M81.9,61.2c-0.8-0.5-1.5-1-1.9-1.7c-0.4-0.7-0.7-1.4-0.7-2.3c0-0.8,0.2-1.6,0.7-2.2c0.4-0.7,1.1-1.2,1.9-1.7
		l0.3,0.5c-0.7,0.5-1.2,1-1.6,1.5c-0.4,0.6-0.5,1.2-0.5,1.9c0,0.7,0.2,1.4,0.5,2c0.4,0.6,0.9,1.1,1.6,1.5L81.9,61.2z"/>
	<path class="st0" d="M83.6,53.5h2.2c0.5,0,1,0.1,1.4,0.2c0.4,0.2,0.8,0.4,1.1,0.7c0.3,0.3,0.5,0.6,0.7,1c0.2,0.4,0.2,0.8,0.2,1.3v0
		c0,0.5-0.1,0.9-0.2,1.3c-0.2,0.4-0.4,0.7-0.7,1c-0.3,0.3-0.7,0.5-1.1,0.7c-0.4,0.2-0.9,0.3-1.4,0.3h-2.2V53.5z M85.8,59.2
		c0.4,0,0.8-0.1,1.1-0.2c0.3-0.1,0.6-0.3,0.8-0.5c0.2-0.2,0.4-0.5,0.5-0.8c0.1-0.3,0.2-0.6,0.2-1v0c0-0.4-0.1-0.7-0.2-1
		c-0.1-0.3-0.3-0.6-0.5-0.8c-0.2-0.2-0.5-0.4-0.8-0.5c-0.3-0.1-0.7-0.2-1.1-0.2h-1.5v5.1H85.8z"/>
	<path class="st0" d="M91,57.8c0,0.3,0.1,0.5,0.2,0.7c0.1,0.2,0.2,0.4,0.4,0.5c0.1,0.1,0.3,0.2,0.5,0.3c0.2,0.1,0.4,0.1,0.6,0.1
		c0.3,0,0.6-0.1,0.8-0.2c0.2-0.1,0.5-0.3,0.7-0.5l0.4,0.4c-0.2,0.3-0.5,0.5-0.8,0.6c-0.3,0.1-0.7,0.2-1.1,0.2
		c-0.3,0-0.6-0.1-0.9-0.2c-0.3-0.1-0.5-0.3-0.7-0.5c-0.2-0.2-0.4-0.5-0.5-0.8c-0.1-0.3-0.2-0.6-0.2-1c0-0.3,0.1-0.7,0.2-1
		c0.1-0.3,0.3-0.6,0.5-0.8c0.2-0.2,0.5-0.4,0.7-0.5c0.3-0.1,0.6-0.2,0.9-0.2c0.4,0,0.7,0.1,0.9,0.2c0.3,0.1,0.5,0.3,0.7,0.5
		c0.2,0.2,0.3,0.5,0.4,0.8c0.1,0.3,0.2,0.6,0.2,1v0.1c0,0,0,0.1,0,0.1H91z M94.1,57.2c0-0.2-0.1-0.4-0.1-0.6
		c-0.1-0.2-0.2-0.4-0.3-0.5c-0.1-0.1-0.3-0.3-0.5-0.3c-0.2-0.1-0.4-0.1-0.6-0.1c-0.2,0-0.4,0-0.6,0.1c-0.2,0.1-0.3,0.2-0.5,0.3
		c-0.1,0.1-0.2,0.3-0.3,0.5c-0.1,0.2-0.1,0.4-0.2,0.6H94.1z"/>
	<path class="st0" d="M96.5,57.8c0,0.3,0.1,0.5,0.2,0.7c0.1,0.2,0.2,0.4,0.4,0.5c0.2,0.1,0.3,0.2,0.5,0.3c0.2,0.1,0.4,0.1,0.6,0.1
		c0.3,0,0.6-0.1,0.8-0.2c0.2-0.1,0.5-0.3,0.6-0.5l0.4,0.4c-0.2,0.3-0.5,0.5-0.8,0.6c-0.3,0.1-0.7,0.2-1.1,0.2
		c-0.3,0-0.6-0.1-0.9-0.2c-0.3-0.1-0.5-0.3-0.8-0.5c-0.2-0.2-0.4-0.5-0.5-0.8c-0.1-0.3-0.2-0.6-0.2-1c0-0.3,0.1-0.7,0.2-1
		c0.1-0.3,0.3-0.6,0.5-0.8c0.2-0.2,0.4-0.4,0.7-0.5c0.3-0.1,0.6-0.2,0.9-0.2c0.3,0,0.7,0.1,0.9,0.2c0.3,0.1,0.5,0.3,0.7,0.5
		c0.2,0.2,0.3,0.5,0.4,0.8c0.1,0.3,0.1,0.6,0.1,1v0.1c0,0,0,0.1,0,0.1H96.5z M99.5,57.2c0-0.2-0.1-0.4-0.1-0.6
		c-0.1-0.2-0.2-0.4-0.3-0.5c-0.1-0.1-0.3-0.3-0.5-0.3c-0.2-0.1-0.4-0.1-0.6-0.1c-0.2,0-0.4,0-0.6,0.1c-0.2,0.1-0.3,0.2-0.5,0.3
		c-0.1,0.1-0.2,0.3-0.3,0.5c-0.1,0.2-0.1,0.4-0.2,0.6H99.5z"/>
	<path class="st0" d="M101.4,55.2h0.7v0.8c0.1-0.1,0.2-0.2,0.3-0.3c0.1-0.1,0.2-0.2,0.3-0.3c0.1-0.1,0.3-0.2,0.4-0.2
		c0.1,0,0.3-0.1,0.5-0.1c0.4,0,0.7,0.1,1,0.3c0.3,0.2,0.4,0.4,0.6,0.7c0.1-0.1,0.2-0.3,0.3-0.4c0.1-0.1,0.2-0.2,0.4-0.3
		c0.1-0.1,0.3-0.2,0.4-0.2c0.2,0,0.4-0.1,0.6-0.1c0.5,0,1,0.2,1.3,0.5c0.3,0.3,0.5,0.8,0.5,1.4v2.9h-0.7v-2.8c0-0.5-0.1-0.8-0.3-1.1
		c-0.2-0.3-0.5-0.4-0.9-0.4c-0.2,0-0.3,0-0.5,0.1c-0.2,0.1-0.3,0.2-0.4,0.3c-0.1,0.1-0.2,0.3-0.3,0.5c-0.1,0.2-0.1,0.4-0.1,0.6v2.7
		h-0.7v-2.8c0-0.5-0.1-0.8-0.3-1c-0.2-0.3-0.5-0.4-0.9-0.4c-0.2,0-0.4,0-0.5,0.1c-0.2,0.1-0.3,0.2-0.4,0.3c-0.1,0.1-0.2,0.3-0.3,0.5
		c-0.1,0.2-0.1,0.4-0.1,0.6v2.7h-0.7V55.2z"/>
	<path class="st0" d="M110.6,57.8c0,0.3,0.1,0.5,0.2,0.7c0.1,0.2,0.2,0.4,0.4,0.5c0.2,0.1,0.3,0.2,0.5,0.3c0.2,0.1,0.4,0.1,0.6,0.1
		c0.3,0,0.6-0.1,0.9-0.2c0.2-0.1,0.4-0.3,0.6-0.5l0.4,0.4c-0.2,0.3-0.5,0.5-0.8,0.6c-0.3,0.1-0.7,0.2-1.1,0.2
		c-0.3,0-0.6-0.1-0.9-0.2c-0.3-0.1-0.5-0.3-0.7-0.5c-0.2-0.2-0.4-0.5-0.5-0.8c-0.1-0.3-0.2-0.6-0.2-1c0-0.3,0.1-0.7,0.2-1
		c0.1-0.3,0.3-0.6,0.5-0.8c0.2-0.2,0.4-0.4,0.7-0.5c0.3-0.1,0.6-0.2,0.9-0.2c0.3,0,0.7,0.1,0.9,0.2c0.3,0.1,0.5,0.3,0.7,0.5
		c0.2,0.2,0.3,0.5,0.4,0.8c0.1,0.3,0.2,0.6,0.2,1v0.1c0,0,0,0.1,0,0.1H110.6z M113.6,57.2c0-0.2-0.1-0.4-0.1-0.6
		c-0.1-0.2-0.2-0.4-0.3-0.5c-0.1-0.1-0.3-0.3-0.5-0.3c-0.2-0.1-0.4-0.1-0.6-0.1c-0.2,0-0.4,0-0.6,0.1c-0.2,0.1-0.3,0.2-0.5,0.3
		c-0.1,0.1-0.2,0.3-0.3,0.5c-0.1,0.2-0.2,0.4-0.2,0.6H113.6z"/>
	<path class="st0" d="M117.6,60c-0.3,0-0.6-0.1-0.8-0.2c-0.3-0.1-0.5-0.3-0.7-0.5c-0.2-0.2-0.4-0.5-0.5-0.8s-0.2-0.7-0.2-1v0
		c0-0.4,0.1-0.7,0.2-1c0.1-0.3,0.3-0.6,0.5-0.8c0.2-0.2,0.5-0.4,0.7-0.5c0.3-0.1,0.5-0.2,0.8-0.2c0.2,0,0.4,0,0.6,0.1
		c0.2,0.1,0.3,0.1,0.5,0.2c0.1,0.1,0.3,0.2,0.4,0.3c0.1,0.1,0.2,0.2,0.3,0.4v-2.9h0.7v6.7h-0.7v-0.9c-0.1,0.1-0.2,0.3-0.3,0.4
		c-0.1,0.1-0.3,0.2-0.4,0.3c-0.1,0.1-0.3,0.2-0.5,0.2C118,60,117.8,60,117.6,60 M117.7,59.3c0.2,0,0.4,0,0.6-0.1
		c0.2-0.1,0.4-0.2,0.5-0.4c0.2-0.2,0.3-0.4,0.4-0.6c0.1-0.2,0.1-0.5,0.1-0.7v0c0-0.3,0-0.5-0.1-0.7c-0.1-0.2-0.2-0.4-0.4-0.6
		c-0.2-0.2-0.3-0.3-0.5-0.4c-0.2-0.1-0.4-0.1-0.6-0.1c-0.2,0-0.4,0-0.6,0.1c-0.2,0.1-0.4,0.2-0.5,0.4c-0.1,0.2-0.3,0.3-0.4,0.6
		c-0.1,0.2-0.1,0.5-0.1,0.8v0c0,0.3,0,0.5,0.1,0.8c0.1,0.2,0.2,0.4,0.4,0.6c0.2,0.2,0.3,0.3,0.5,0.4
		C117.2,59.3,117.4,59.3,117.7,59.3"/>
	<path class="st0" d="M126,60c-0.2,0-0.4,0-0.5-0.1c-0.2-0.1-0.3-0.1-0.4-0.2c-0.1-0.1-0.2-0.2-0.3-0.4c-0.1-0.2-0.1-0.4-0.1-0.6
		v-2.9H124v-0.6h0.6v-1.4h0.7v1.4h1.5v0.6h-1.5v2.8c0,0.3,0.1,0.5,0.2,0.6c0.2,0.1,0.3,0.2,0.6,0.2c0.1,0,0.2,0,0.3,0
		c0.1,0,0.2-0.1,0.3-0.1v0.6c-0.1,0.1-0.3,0.1-0.4,0.1C126.3,59.9,126.1,60,126,60"/>
	<path class="st0" d="M130.2,60c-0.4,0-0.7-0.1-1-0.2c-0.3-0.1-0.6-0.3-0.8-0.5c-0.2-0.2-0.4-0.5-0.5-0.8c-0.1-0.3-0.2-0.6-0.2-0.9
		v0c0-0.3,0.1-0.7,0.2-1c0.1-0.3,0.3-0.6,0.5-0.8c0.2-0.2,0.5-0.4,0.8-0.5c0.3-0.1,0.6-0.2,1-0.2c0.4,0,0.7,0.1,1,0.2
		c0.3,0.1,0.6,0.3,0.8,0.5c0.2,0.2,0.4,0.5,0.5,0.8c0.1,0.3,0.2,0.6,0.2,0.9v0c0,0.3-0.1,0.6-0.2,1c-0.1,0.3-0.3,0.6-0.5,0.8
		c-0.2,0.2-0.5,0.4-0.8,0.5C130.9,59.9,130.6,60,130.2,60 M130.3,59.4c0.3,0,0.5,0,0.7-0.1c0.2-0.1,0.4-0.2,0.5-0.4
		c0.2-0.2,0.3-0.3,0.4-0.6c0.1-0.2,0.1-0.5,0.1-0.7v0c0-0.3,0-0.5-0.1-0.7c-0.1-0.2-0.2-0.4-0.4-0.6c-0.2-0.2-0.3-0.3-0.6-0.4
		c-0.2-0.1-0.4-0.1-0.7-0.1c-0.3,0-0.5,0-0.7,0.1c-0.2,0.1-0.4,0.2-0.5,0.4c-0.1,0.2-0.3,0.4-0.3,0.6c-0.1,0.2-0.1,0.5-0.1,0.7v0
		c0,0.3,0,0.5,0.1,0.7c0.1,0.2,0.2,0.4,0.4,0.6c0.2,0.2,0.3,0.3,0.6,0.4C129.8,59.3,130,59.4,130.3,59.4"/>
	<path class="st0" d="M139.3,60c-0.2,0-0.4,0-0.6-0.1c-0.2,0-0.3-0.1-0.5-0.2c-0.1-0.1-0.3-0.2-0.4-0.3c-0.1-0.1-0.2-0.3-0.3-0.4
		v0.9h-0.7v-6.7h0.7v2.9c0.1-0.1,0.2-0.3,0.3-0.4c0.1-0.1,0.3-0.2,0.4-0.3c0.2-0.1,0.3-0.2,0.5-0.2c0.2-0.1,0.4-0.1,0.6-0.1
		c0.3,0,0.6,0.1,0.8,0.2c0.3,0.1,0.5,0.3,0.7,0.5c0.2,0.2,0.4,0.5,0.5,0.8c0.1,0.3,0.2,0.6,0.2,1v0c0,0.4-0.1,0.7-0.2,1
		c-0.1,0.3-0.3,0.6-0.5,0.8c-0.2,0.2-0.5,0.4-0.7,0.5C139.8,59.9,139.6,60,139.3,60 M139.1,59.3c0.2,0,0.4,0,0.6-0.1
		c0.2-0.1,0.4-0.2,0.5-0.4c0.2-0.2,0.3-0.3,0.4-0.6c0.1-0.2,0.1-0.5,0.1-0.8v0c0-0.3,0-0.5-0.1-0.8c-0.1-0.2-0.2-0.4-0.4-0.6
		c-0.1-0.2-0.3-0.3-0.5-0.4c-0.2-0.1-0.4-0.1-0.6-0.1c-0.2,0-0.4,0-0.6,0.1c-0.2,0.1-0.4,0.2-0.5,0.4c-0.2,0.2-0.3,0.4-0.4,0.6
		c-0.1,0.2-0.1,0.5-0.1,0.7v0c0,0.3,0.1,0.5,0.1,0.7c0.1,0.2,0.2,0.4,0.4,0.6c0.2,0.2,0.3,0.3,0.5,0.4
		C138.7,59.3,138.9,59.3,139.1,59.3"/>
	<path class="st0" d="M143.2,57.8c0,0.3,0.1,0.5,0.2,0.7c0.1,0.2,0.2,0.4,0.4,0.5c0.1,0.1,0.3,0.2,0.5,0.3c0.2,0.1,0.4,0.1,0.6,0.1
		c0.3,0,0.6-0.1,0.8-0.2c0.2-0.1,0.5-0.3,0.7-0.5l0.4,0.4c-0.2,0.3-0.5,0.5-0.8,0.6c-0.3,0.1-0.7,0.2-1.1,0.2
		c-0.3,0-0.6-0.1-0.9-0.2c-0.3-0.1-0.5-0.3-0.7-0.5c-0.2-0.2-0.4-0.5-0.5-0.8c-0.1-0.3-0.2-0.6-0.2-1c0-0.3,0.1-0.7,0.2-1
		c0.1-0.3,0.3-0.6,0.5-0.8c0.2-0.2,0.4-0.4,0.7-0.5c0.3-0.1,0.6-0.2,0.9-0.2c0.3,0,0.7,0.1,0.9,0.2c0.3,0.1,0.5,0.3,0.7,0.5
		c0.2,0.2,0.3,0.5,0.4,0.8c0.1,0.3,0.1,0.6,0.1,1v0.1c0,0,0,0.1,0,0.1H143.2z M146.3,57.2c0-0.2-0.1-0.4-0.1-0.6
		c-0.1-0.2-0.2-0.4-0.3-0.5c-0.1-0.1-0.3-0.3-0.5-0.3c-0.2-0.1-0.4-0.1-0.6-0.1c-0.2,0-0.4,0-0.6,0.1c-0.2,0.1-0.3,0.2-0.5,0.3
		c-0.1,0.1-0.3,0.3-0.3,0.5c-0.1,0.2-0.1,0.4-0.2,0.6H146.3z"/>
	<path class="st0" d="M153.7,60c-0.4,0-0.8-0.1-1.1-0.2c-0.3-0.1-0.6-0.3-0.8-0.5c-0.2-0.2-0.4-0.5-0.5-0.9
		c-0.1-0.3-0.2-0.7-0.2-1.2v-3.7h0.7v3.7c0,0.7,0.2,1.2,0.5,1.6c0.4,0.4,0.8,0.6,1.4,0.6c0.6,0,1.1-0.2,1.4-0.5
		c0.4-0.4,0.5-0.9,0.5-1.6v-3.7h0.7v3.7c0,0.5-0.1,0.9-0.2,1.2c-0.1,0.4-0.3,0.7-0.5,0.9c-0.2,0.2-0.5,0.4-0.8,0.5
		C154.4,59.9,154.1,60,153.7,60"/>
	<path class="st0" d="M157.9,55.2h0.7V56c0.2-0.3,0.4-0.5,0.6-0.6c0.3-0.2,0.6-0.3,1-0.3c0.3,0,0.5,0,0.8,0.1
		c0.2,0.1,0.4,0.2,0.6,0.4c0.2,0.2,0.3,0.4,0.4,0.6c0.1,0.2,0.1,0.5,0.1,0.8v2.9h-0.7v-2.8c0-0.4-0.1-0.8-0.3-1
		c-0.2-0.3-0.6-0.4-1-0.4c-0.2,0-0.4,0-0.6,0.1c-0.2,0.1-0.3,0.2-0.5,0.3c-0.1,0.1-0.2,0.3-0.3,0.5c-0.1,0.2-0.1,0.4-0.1,0.6v2.7
		h-0.7V55.2z"/>
	<path class="st0" d="M163.6,53.3h0.8v0.8h-0.8V53.3z M163.6,55.2h0.7v4.7h-0.7V55.2z"/>
	<polygon class="st0" points="165.5,55.2 166.3,55.2 167.9,59.1 169.5,55.2 170.2,55.2 168.2,59.9 167.6,59.9 	"/>
	<path class="st0" d="M171.8,57.8c0,0.3,0.1,0.5,0.2,0.7c0.1,0.2,0.2,0.4,0.4,0.5c0.2,0.1,0.3,0.2,0.5,0.3c0.2,0.1,0.4,0.1,0.6,0.1
		c0.3,0,0.6-0.1,0.8-0.2c0.2-0.1,0.5-0.3,0.6-0.5l0.4,0.4c-0.2,0.3-0.5,0.5-0.8,0.6c-0.3,0.1-0.7,0.2-1.1,0.2
		c-0.3,0-0.6-0.1-0.9-0.2c-0.3-0.1-0.5-0.3-0.7-0.5c-0.2-0.2-0.4-0.5-0.5-0.8c-0.1-0.3-0.2-0.6-0.2-1c0-0.3,0.1-0.7,0.2-1
		c0.1-0.3,0.3-0.6,0.5-0.8c0.2-0.2,0.4-0.4,0.7-0.5c0.3-0.1,0.6-0.2,0.9-0.2c0.3,0,0.7,0.1,0.9,0.2c0.3,0.1,0.5,0.3,0.7,0.5
		c0.2,0.2,0.3,0.5,0.4,0.8c0.1,0.3,0.1,0.6,0.1,1v0.1c0,0,0,0.1,0,0.1H171.8z M174.8,57.2c0-0.2-0.1-0.4-0.1-0.6
		c-0.1-0.2-0.2-0.4-0.3-0.5c-0.1-0.1-0.3-0.3-0.5-0.3c-0.2-0.1-0.4-0.1-0.6-0.1c-0.2,0-0.4,0-0.6,0.1c-0.2,0.1-0.3,0.2-0.5,0.3
		c-0.1,0.1-0.2,0.3-0.3,0.5c-0.1,0.2-0.1,0.4-0.2,0.6H174.8z"/>
	<path class="st0" d="M176.7,55.2h0.7v1.2c0.1-0.2,0.2-0.4,0.3-0.5c0.1-0.2,0.3-0.3,0.4-0.4c0.2-0.1,0.3-0.2,0.5-0.3
		c0.2-0.1,0.4-0.1,0.6-0.1v0.8h-0.1c-0.3,0-0.5,0-0.7,0.1c-0.2,0.1-0.4,0.2-0.6,0.4c-0.2,0.2-0.3,0.4-0.4,0.7
		c-0.1,0.3-0.1,0.6-0.1,0.9v1.9h-0.7V55.2z"/>
	<path class="st0" d="M182,60c-0.3,0-0.7-0.1-1-0.2c-0.4-0.1-0.7-0.3-0.9-0.5l0.4-0.5c0.3,0.2,0.5,0.3,0.8,0.5
		c0.3,0.1,0.6,0.2,0.8,0.2c0.3,0,0.5-0.1,0.7-0.2c0.2-0.1,0.3-0.3,0.3-0.6v0c0-0.1,0-0.2-0.1-0.3c-0.1-0.1-0.1-0.2-0.3-0.2
		c-0.1-0.1-0.2-0.1-0.4-0.2c-0.1-0.1-0.3-0.1-0.4-0.1c-0.2-0.1-0.4-0.1-0.6-0.2c-0.2-0.1-0.4-0.1-0.5-0.3c-0.1-0.1-0.3-0.2-0.4-0.4
		c-0.1-0.1-0.1-0.3-0.1-0.6v0c0-0.2,0-0.4,0.1-0.6c0.1-0.2,0.2-0.3,0.3-0.4c0.1-0.1,0.3-0.2,0.5-0.3c0.2-0.1,0.4-0.1,0.6-0.1
		c0.3,0,0.6,0,0.9,0.1c0.3,0.1,0.6,0.2,0.8,0.4l-0.3,0.5c-0.2-0.1-0.4-0.2-0.7-0.3c-0.2-0.1-0.5-0.1-0.7-0.1c-0.3,0-0.5,0.1-0.7,0.2
		c-0.2,0.1-0.2,0.3-0.2,0.5v0c0,0.1,0,0.2,0.1,0.3c0.1,0.1,0.2,0.2,0.3,0.2c0.1,0.1,0.2,0.1,0.4,0.2c0.1,0,0.3,0.1,0.5,0.1
		c0.2,0.1,0.4,0.1,0.5,0.2c0.2,0.1,0.3,0.1,0.5,0.3c0.2,0.1,0.3,0.2,0.4,0.4c0.1,0.1,0.1,0.3,0.1,0.5v0c0,0.2,0,0.4-0.1,0.6
		c-0.1,0.2-0.2,0.3-0.4,0.4c-0.2,0.1-0.3,0.2-0.5,0.3C182.5,59.9,182.3,60,182,60"/>
	<path class="st0" d="M185,53.3h0.8v0.8H185V53.3z M185.1,55.2h0.7v4.7h-0.7V55.2z"/>
	<path class="st0" d="M189,60c-0.2,0-0.4,0-0.5-0.1c-0.2-0.1-0.3-0.1-0.4-0.2c-0.1-0.1-0.2-0.2-0.3-0.4c-0.1-0.2-0.1-0.4-0.1-0.6
		v-2.9H187v-0.6h0.7v-1.4h0.7v1.4h1.5v0.6h-1.5v2.8c0,0.3,0.1,0.5,0.2,0.6c0.1,0.1,0.3,0.2,0.6,0.2c0.1,0,0.2,0,0.3,0
		c0.1,0,0.2-0.1,0.3-0.1v0.6c-0.1,0.1-0.3,0.1-0.4,0.1C189.3,59.9,189.2,60,189,60"/>
	<path class="st0" d="M191.8,61.4c-0.2,0-0.4,0-0.5-0.1c-0.2,0-0.3-0.1-0.5-0.2l0.2-0.6c0.1,0.1,0.2,0.1,0.3,0.1c0.1,0,0.3,0,0.4,0
		c0.2,0,0.4-0.1,0.5-0.2c0.1-0.1,0.3-0.4,0.4-0.7l-2.2-4.7h0.8l1.7,3.9l1.5-3.9h0.8l-2,4.9c-0.2,0.5-0.4,0.8-0.7,1
		C192.5,61.3,192.2,61.4,191.8,61.4"/>
	<path class="st0" d="M196.2,60.7c0.7-0.4,1.2-0.9,1.6-1.5c0.4-0.6,0.5-1.2,0.5-2c0-0.7-0.2-1.4-0.5-1.9c-0.4-0.6-0.9-1.1-1.6-1.5
		l0.3-0.5c0.8,0.5,1.4,1,1.9,1.7c0.4,0.7,0.7,1.4,0.7,2.2c0,0.9-0.2,1.6-0.7,2.3c-0.4,0.6-1.1,1.2-1.9,1.7L196.2,60.7z"/>
</g>
</svg>
